<svg xmlns="http://www.w3.org/2000/svg"  viewBox="0 0 40 40" width="40px" height="40px"><path fill="#8bb7f0" d="M20,1C9.507,1,1,9.507,1,20s8.507,19,19,19s19-8.507,19-19S30.493,1,20,1z"/><path fill="#4e7ab5" d="M20,2c9.925,0,18,8.075,18,18s-8.075,18-18,18S2,29.925,2,20S10.075,2,20,2 M20,1	C9.507,1,1,9.507,1,20s8.507,19,19,19s19-8.507,19-19S30.493,1,20,1L20,1z"/><path fill="#fff" d="M30.937,14.041c0.046-0.151,0.068-0.291,0.062-0.416C30.984,13.263,30.735,13,30.149,13h-2.618	c-0.661,0-0.966,0.4-1.144,0.801c0,0-1.632,3.359-3.513,5.574c-0.61,0.641-0.92,0.625-1.25,0.625C21.447,20,21,19.786,21,19.199	v-5.185C21,13.32,20.827,13,20.268,13h-4.649C15.212,13,15,13.32,15,13.641c0,0.667,0.898,0.827,1,2.696v3.623	c0,0.88-0.153,1.04-0.483,1.04c-0.89,0-2.642-3-3.815-6.932C11.448,13.294,11.194,13,10.533,13H7.89C7.127,13,7,13.374,7,13.774	c0,0.721,0.6,4.619,3.875,9.101C13.25,26.125,16.379,28,19.149,28c1.678,0,1.85-0.427,1.85-1.094v-2.972	C21,23.133,21.183,23,21.717,23c0.381,0,1.158,0.25,2.658,2c1.73,2.018,2.044,3,3.036,3h2.618c0.608,0,0.957-0.255,0.971-0.75	c0.003-0.126-0.015-0.267-0.056-0.424C30.75,26.25,29.86,24.842,28.75,23.5c-0.615-0.743-1.222-1.479-1.501-1.879	C27.062,21.36,26.991,21.176,27,21c0.009-0.185,0.105-0.361,0.249-0.607C27.223,20.393,30.607,15.642,30.937,14.041z"/></svg>