<svg xmlns="http://www.w3.org/2000/svg"  viewBox="0 0 40 40" width="40px" height="40px"><rect width="35" height="35" x="2.5" y="2.5" fill="#66798f"/><path fill="#36404d" d="M37,3v34H3V3H37 M38,2H2v36h36V2L38,2z"/><circle cx="10.5" cy="18" r="3.25" fill="#fff"/><circle cx="19" cy="17" r="3.5" fill="#fff"/><circle cx="28.5" cy="16" r="4" fill="#fff"/><path fill="#fff" d="M10.5,22L10.5,22C8.567,22,7,23.567,7,25.5v1C7,26.776,7.224,27,7.5,27h6c0.276,0,0.5-0.224,0.5-0.5 v-1C14,23.567,12.433,22,10.5,22z"/><path fill="#fff" d="M19,21.3L19,21.3c-2.209,0-4,1.791-4,4v1.2c0,0.276,0.224,0.5,0.5,0.5h7c0.276,0,0.5-0.224,0.5-0.5 v-1.2C23,23.091,21.209,21.3,19,21.3z"/><g><path fill="#fff" d="M28.5,21L28.5,21c-2.485,0-4.5,2.015-4.5,4.5v1c0,0.276,0.224,0.5,0.5,0.5h8 c0.276,0,0.5-0.224,0.5-0.5v-1C33,23.015,30.985,21,28.5,21z"/></g></svg>