<svg xmlns="http://www.w3.org/2000/svg"  viewBox="0 0 40 40" width="40px" height="40px"><path fill="#bae0bd" d="M32,21.5c-1.933,0-3.5,1.567-3.5,3.5s1.567,3.5,3.5,3.5s3.5-1.567,3.5-3.5S33.933,21.5,32,21.5z"/><path fill="#5e9c76" d="M32,29c-2.206,0-4-1.794-4-4s1.794-4,4-4s4,1.794,4,4S34.206,29,32,29z M32,22 c-1.654,0-3,1.346-3,3s1.346,3,3,3s3-1.346,3-3S33.654,22,32,22z"/><g><path fill="#bae0bd" d="M20.577,21.993l5.152-5.118c1.086-1.086,0.868-3.51-0.061-4.439c-1.242-1.242-3.257-1.242-4.5,0 l-7.669,7.62V4.682c0-1.757-1.343-3.182-3-3.182s-3,1.425-3,3.182v28.636c0,1.757,1.343,3.182,3,3.182s3-1.425,3-3.182v-4.464 c0.243-0.138,0.478-0.298,0.685-0.505l1.724-1.714l4.744,8.217c0.878,1.522,2.825,2.044,4.346,1.165 c1.522-0.878,2.044-2.825,1.165-4.346L20.577,21.993z"/><path fill="#5e9c76" d="M10.5,37C8.57,37,7,35.349,7,33.318V4.682C7,2.651,8.57,1,10.5,1S14,2.651,14,4.682v14.172 l6.816-6.772c1.389-1.389,3.815-1.39,5.206,0.001c1.089,1.089,1.353,3.854,0.061,5.146l-4.88,4.848l5.395,9.344 c0.492,0.852,0.623,1.844,0.368,2.794c-0.254,0.95-0.864,1.744-1.715,2.235c-0.559,0.323-1.194,0.494-1.837,0.494l0,0 c-1.313,0-2.536-0.706-3.192-1.842l-4.42-7.654c0,0-1.724,1.622-1.801,1.688v4.184C14,35.349,12.43,37,10.5,37z M10.5,2 C9.122,2,8,3.203,8,4.682v28.637C8,34.797,9.122,36,10.5,36s2.5-1.203,2.5-2.682v-4.754l3.018-2.743l5.069,8.779 c0.711,1.232,2.42,1.699,3.663,0.982c0.62-0.358,1.064-0.937,1.25-1.629s0.09-1.415-0.268-2.035l-5.78-10.01l5.425-5.39 c0.878-0.878,0.686-2.982-0.062-3.731c-1.013-1.011-2.78-1.013-3.792,0L13,21.258V4.682C13,3.203,11.878,2,10.5,2z"/></g></svg>