<svg xmlns="http://www.w3.org/2000/svg"  viewBox="0 0 40 40" width="40px" height="40px"><path fill="#f78f8f" d="M2.5 2.5H37.5V37.5H2.5z"/><path fill="#c74343" d="M37,3v34H3V3H37 M38,2H2v36h36V2L38,2z"/><path fill="#fff" d="M20.499 25.654c-1.428 1.761-3.458 2.654-6.035 2.654-4.583 0-8.31-3.727-8.31-8.308s3.727-8.308 8.31-8.308c1.866 0 3.662.622 5.119 1.764l-1.678 1.678c-1.004-.71-2.207-1.097-3.441-1.097C11.175 14.038 8.5 16.713 8.5 20s2.675 5.962 5.964 5.962c2.589 0 4.664-1.515 5.414-3.954l.236-.768h-5.057v-2.214l7.297.011C22.599 20.917 22.14 23.632 20.499 25.654zM29 15H31V25H29z"/><path fill="#fff" d="M29 15H31V25H29z" transform="rotate(90 30 20)"/></svg>